<svg xmlns="http://www.w3.org/2000/svg" width="200" height="200" viewBox="0 0 200 200" fill="none">
<style xmlns="http://www.w3.org/2000/svg">
  path, rect, circle {
    fill: black;
  }

  @media (prefers-color-scheme: dark) {
    path, rect, circle {
  	  fill: white;
    }
  }
</style>
<path fill-rule="evenodd" clip-rule="evenodd" d="M155.655 154.742C136.985 167.503 111.881 165.277 95.7527 149.433C82.6522 136.564 62.2086 134.896 47.1903 145.471L32.3307 155.934C30.9112 156.934 29.0521 157.06 27.51 156.262C25.968 155.464 25 153.874 25 152.139V110.604C25.0814 110.554 25.1617 110.501 25.2409 110.446L41.6102 98.919C58.3391 87.1392 81.111 88.9969 95.703 103.333C113.311 120.63 140.718 123.059 161.101 109.128L174 100.311V139.754C174 141.287 173.243 142.721 171.976 143.587L155.655 154.742ZM174 89.0484C173.94 89.0856 173.88 89.1246 173.821 89.1649L155.841 101.453C139.133 112.873 116.667 110.882 102.234 96.7026C84.4323 79.2148 56.6519 76.9481 36.2437 91.3187L25 99.2358V59.8936C25 58.3837 25.735 56.9681 26.9706 56.098L41.8301 45.6347C60.5235 32.4717 85.9696 34.5479 102.275 50.5665C115.233 63.2959 135.402 65.0831 150.402 54.8313L166.723 43.6763C168.146 42.7032 169.993 42.5971 171.519 43.4008C173.045 44.2046 174 45.786 174 47.5089V89.0484Z" />
</svg>